<svg width="22px" height="22px" viewBox="0 0 22 22" version="1.1" xmlns="http://www.w3.org/2000/svg" xmlns:xlink="http://www.w3.org/1999/xlink">
    <g id="Page-1" stroke="none" stroke-width="1" fill="none" fill-rule="evenodd">
        <g id="Page-en-savoir-plus" transform="translate(-1570.000000, -150.000000)" fill="#FFFFFF">
            <path d="M1584.1,161.3 C1583.9,161.1 1583.9,160.8 1584.1,160.6 L1591.6,153.1 C1591.8,152.9 1591.9,152.6 1591.9,152.4 C1591.9,152.2 1591.8,151.9 1591.6,151.7 L1590.2,150.3 C1590,150.1 1589.7,150 1589.5,150 C1589.2,150 1589,150.1 1588.8,150.3 L1581.3,157.8 C1581.1,158 1580.8,158 1580.6,157.8 L1573.1,150.3 C1572.9,150.1 1572.6,150 1572.4,150 C1572.2,150 1571.9,150.1 1571.7,150.3 L1570.3,151.7 C1570.1,151.9 1570,152.2 1570,152.4 C1570,152.6 1570.1,152.9 1570.3,153.1 L1577.8,160.6 C1578,160.8 1578,161.1 1577.8,161.3 L1570.3,168.8 C1570.1,169 1570,169.3 1570,169.5 C1570,169.7 1570.1,170 1570.3,170.2 L1571.7,171.6 C1571.9,171.8 1572.2,171.9 1572.4,171.9 C1572.6,171.9 1572.9,171.8 1573.1,171.6 L1580.6,164.1 C1580.8,163.9 1581.1,163.9 1581.3,164.1 L1588.8,171.6 C1589,171.8 1589.3,171.9 1589.5,171.9 C1589.7,171.9 1590,171.8 1590.2,171.6 L1591.6,170.2 C1591.8,170 1591.9,169.7 1591.9,169.5 C1591.9,169.3 1591.8,169 1591.6,168.8 L1584.1,161.3 Z" id="Path"></path>
        </g>
    </g>
</svg>